<svg width="2570" height="2571" viewBox="0 0 2570 2571" fill="none" xmlns="http://www.w3.org/2000/svg">
<path fill-rule="evenodd" clip-rule="evenodd" d="M167.499 1691.44C-22.8096 1501.28 -54.7899 1199.08 91.3058 973.088C113.325 939.006 139.014 907.196 167.499 878.706L541.651 504.501C636.718 409.42 762.891 350.519 896.754 338.809L900.774 338.634C916.618 337.236 932.521 336.537 948.482 336.537C968.404 336.653 988.268 337.702 1008.07 339.683L1011.22 340.032C1065.22 345.975 1117.82 359.433 1167.63 379.882C1195.35 391.301 1222.32 405.051 1248.54 421.13C1249.35 421.713 1250.17 422.237 1250.98 422.704C1229.08 430.161 1207.53 438.667 1186.32 448.221C1162.32 459.174 1139.02 471.526 1116.42 485.275C1098.13 478.051 1079.2 471.992 1059.63 467.098C997.413 451.542 931.181 449.27 868.094 460.281L863.725 461.155C772.678 478.109 689.669 521.629 624.135 587.172L250.159 961.378C194.062 1017.48 153.344 1087.74 132.548 1164.47C91.131 1316.36 129.053 1475.76 234.081 1591.81C231.285 1653.68 236.819 1714.68 250.683 1774.81L167.499 1691.44Z" fill="white"/>
<path fill-rule="evenodd" clip-rule="evenodd" d="M1872.59 1910.26C1801.64 1980.35 1706.57 2018.1 1607.49 2013.73L1828.9 1792.11C1874.69 1746.14 1909.64 1692.14 1932.88 1631.66C1950.53 1584.65 1960.67 1535.36 1962.41 1485.02C1964.69 1425.25 1955.42 1366.69 1934.8 1310.59C1924.55 1282.74 1911.91 1256.41 1896.88 1231.59C1877.66 1199.66 1855 1170.65 1828.9 1144.55L1400.92 716.509C1459.47 705.324 1520.11 708.819 1577.08 727.346L1911.56 1061.88C1932.76 1083.08 1952.45 1106.15 1970.63 1131.09C1987.87 1154.98 2003.25 1180.14 2016.76 1206.59C2041.23 1254.48 2058.7 1305.35 2068.84 1357.78C2075.31 1390.29 2078.8 1424.55 2079.5 1459.33C2081.6 1597.58 2038.61 1735.66 1946.69 1836.15C1929.04 1855.56 1891.29 1891.91 1872.59 1910.26ZM1312.85 2262.62C1354.79 2284.06 1398.59 2300.95 1444.26 2313.31C1334.69 2368.19 1203.8 2362.42 1099.99 2298.97C1173.04 2304.22 1245.57 2291.63 1312.85 2262.62ZM271.129 1100.15C266.236 1173.04 278.469 1245.75 307.653 1313.04C286.217 1354.87 269.323 1398.68 256.974 1444.47C202.101 1335.06 207.868 1203.97 271.129 1100.15Z" fill="white"/>
<path fill-rule="evenodd" clip-rule="evenodd" d="M1439.02 1970.91C1463.6 1952.97 1486.61 1933.27 1508.05 1911.83L1842.71 1577.3C1860.88 1520.33 1864.72 1459.85 1853.37 1401.3L1425.39 1829.34C1399.18 1855.56 1370.23 1878.22 1338.54 1897.33C1313.84 1912.24 1287.51 1924.88 1259.55 1935.26C1203.39 1955.76 1145.2 1964.91 1084.97 1962.7C1034.81 1960.95 985.53 1950.99 938.521 1933.16C877.88 1910.09 823.706 1875.13 777.92 1829.34L556.505 1607.72C552.486 1706.82 589.359 1802.42 659.96 1873.03L734.057 1947.14C838.56 2034.53 972.947 2082.25 1110.65 2079.8C1145.61 2079.1 1179.86 2075.6 1212.36 2069.31C1264.61 2059.17 1315.47 2041.7 1363.53 2017.05C1389.74 2003.77 1415.25 1988.04 1439.02 1970.91ZM978.19 234.115C1094.23 129.246 1253.78 91.3189 1405.64 132.567C1482.36 153.366 1552.61 194.09 1608.71 250.195L1924.49 566.198L1982.86 624.4C2048.22 690.118 2091.73 772.789 2108.86 863.85L2109.56 868.394C2120.74 931.49 2118.3 997.732 2102.74 1059.78C2098.08 1079 2092.02 1098 2084.57 1116.76C2098.31 1139.25 2110.66 1162.49 2121.62 1186.49C2131.29 1207.82 2139.79 1229.43 2147.13 1251.34C2147.71 1250.41 2148.24 1249.47 2148.7 1248.54C2164.9 1222.32 2178.64 1195.47 2189.95 1167.97C2276.62 957.532 2227.87 706.897 2068.66 545.05L1691.19 167.523C1662.88 139.209 1631.08 113.516 1596.82 91.3189C1371.04 -54.7977 1068.71 -22.8129 878.579 167.523L795.396 250.719C855.162 236.911 916.676 231.493 978.19 234.115Z" fill="white"/>
<path fill-rule="evenodd" clip-rule="evenodd" d="M1469.95 271.343C1365.97 207.898 1235.08 201.956 1125.51 257.011C1171.18 269.246 1214.98 286.142 1256.93 307.698C1324.21 278.684 1397.25 266.275 1469.95 271.343ZM623.087 734.163C531.166 834.662 488.176 972.738 490.447 1110.99C490.972 1145.25 494.467 1179.5 500.933 1212.71C511.069 1265.15 528.719 1316.01 553.01 1363.72C566.641 1390.17 582.019 1415.34 599.145 1439.23C617.203 1464.05 636.893 1487.12 658.213 1508.44L992.87 1842.97C1049.67 1861.32 1110.13 1864.99 1168.85 1853.81L740.872 1425.77C714.892 1399.79 692.232 1370.77 672.892 1338.73C657.63 1313.44 644.99 1287.11 634.97 1259.73C614.524 1203.8 605.262 1145.07 607.359 1085.3C609.106 1035.14 619.242 985.847 636.893 938.831C660.135 878.182 695.086 824.175 740.872 778.207L962.287 556.586C863.725 552.391 768.134 589.969 697.183 660.056C678.484 678.408 640.737 714.937 623.087 734.163Z" fill="white"/>
<path d="M2335.69 978.506C2440.54 1094.56 2478.64 1253.96 2437.4 1405.67C2416.6 1482.4 2375.89 1552.66 2319.79 1608.94L1945.64 1983.15C1880.1 2048.51 1797.27 2092.21 1706.22 2109.16L1701.68 2109.86C1637.72 2121.22 1573.23 2118.95 1510.15 2103.22C1491.04 2098.44 1472.11 2092.38 1453.35 2085.04C1430.63 2098.79 1407.33 2111.14 1383.45 2122.1C1362.13 2131.65 1340.58 2140.16 1318.79 2147.61C1319.6 2148.2 1320.48 2148.72 1321.41 2149.19C1347.74 2165.27 1374.65 2179.02 1402.15 2190.44C1451.95 2210.88 1504.55 2224.34 1558.73 2230.11L1561.7 2230.64C1597.12 2234.25 1632.88 2234.65 1669 2231.86L1673.02 2231.51C1806.88 2219.62 1933.23 2160.9 2028.3 2065.64L2402.27 1691.44C2430.93 1662.95 2456.62 1631.14 2478.64 1597.23C2624.74 1371.24 2592.58 1069.04 2402.27 878.706L2319.26 795.686C2333.01 855.461 2338.49 916.401 2335.69 978.506Z" fill="white"/>
<path fill-rule="evenodd" clip-rule="evenodd" d="M2298.64 1469.99C2361.9 1366.17 2367.85 1235.26 2312.8 1125.85C2300.57 1171.41 2283.73 1215.16 2262.29 1257.11C2291.3 1324.57 2303.71 1397.28 2298.64 1469.99ZM485.205 1453.73C471.574 1431.25 459.224 1407.94 448.157 1383.82C438.603 1362.85 430.099 1341.23 422.642 1318.98C422.06 1319.91 421.535 1320.79 421.069 1321.6C404.992 1347.93 391.244 1374.85 379.827 1402.35C359.381 1452.16 345.925 1504.77 339.983 1558.95L339.633 1562.45C335.963 1597.4 335.614 1633.58 338.41 1669.24L338.76 1672.56C350.468 1807.14 409.361 1933.51 504.428 2028.41L878.579 2402.62C907.356 2431.52 938.812 2456.98 972.947 2479C1199.08 2625.11 1501.06 2592.96 1691.19 2402.62L1774.38 2319.6C1714.61 2333.41 1653.1 2338.65 1591.58 2336.2C1475.54 2440.9 1315.99 2479 1164.3 2437.75C1087.59 2416.95 1017.51 2376.23 961.239 2320.12L587.087 1945.92C521.554 1880.37 478.04 1797.53 461.088 1706.47L460.389 1702.27C449.03 1637.95 451.302 1573.46 467.03 1510.54C471.923 1490.96 477.981 1472.03 485.205 1453.73Z" fill="white"/>
<path fill-rule="evenodd" clip-rule="evenodd" d="M1206.25 553.09C1254.13 528.795 1304.98 511.317 1357.41 501.005C1390.26 494.596 1424.17 491.101 1459.12 490.518C1597 487.547 1735.41 531.242 1835.89 623.177C1855.11 641.004 1891.46 678.932 1909.99 697.459C1980.41 767.895 2017.29 863.5 2013.27 962.426L1791.68 740.979C1745.89 695.186 1691.72 660.23 1631.25 637.159C1584.42 619.332 1534.96 609.369 1484.81 607.621C1424.57 605.407 1366.44 614.554 1310.4 635.062C1282.67 645.199 1256.28 657.842 1231.24 672.989C1199.43 692.215 1170.48 714.878 1144.38 740.979L716.406 1169.02C705.047 1110.47 708.717 1049.99 727.066 993.013L1061.72 658.482V658.308C1082.93 637.101 1105.94 617.467 1130.75 599.407C1154.52 582.162 1179.68 566.723 1206.25 553.09Z" fill="white"/>
</svg>
