<svg width="6344" height="2106" viewBox="0 0 6344 2106" fill="none" xmlns="http://www.w3.org/2000/svg">
<path fill-rule="evenodd" clip-rule="evenodd" d="M1811.37 1781.21H1816C1822.85 1781.21 1828.88 1785.01 1833.76 1793.19C1838.88 1801.07 1841.42 1810.6 1841.36 1821.78V1999.91C1841.36 2031.8 1837.89 2055.76 1830.45 2072.45C1823.07 2089.14 1812.53 2097.48 1798.81 2097.48C1791.98 2097.48 1785.54 2095.11 1779.48 2090.38C1773.53 2085.5 1769.65 2080.05 1768.08 2073.52C1767.25 2070.47 1765.85 2068.07 1763.45 2065.84C1760.97 2063.69 1758.24 2062.62 1755.77 2062.62C1752.19 2062.62 1749.27 2063.69 1747.01 2065.84C1745.08 2067.99 1744.36 2070.55 1744.86 2073.52C1746.84 2081.4 1752.49 2088.2 1761.8 2093.93C1771.05 2099.93 1781.13 2102.94 1792.04 2102.94C1816.82 2102.94 1835.41 2092.36 1848.22 2071.04C1861 2049.73 1867.36 2018.75 1867.3 1978.1L1866.72 1819.38C1867.55 1808.97 1870.28 1799.97 1875.48 1792.37C1880.33 1784.93 1886.14 1781.21 1892.92 1781.21H1897.29V1774.6H1811.37V1781.21Z" fill="white"/>
<path fill-rule="evenodd" clip-rule="evenodd" d="M2204.31 2037.83H2209.27C2207.62 2045.51 2205.96 2055.26 2204.06 2066.5C2202.41 2077.65 2200.51 2087.24 2198.86 2094.59C2198.86 2095.09 2198.86 2095.91 2198.61 2096.24C2198.61 2096.74 2198.36 2097.32 2198.36 2098.14H1996.85V2091.53H2001.23C2008.01 2091.53 2014.04 2087.73 2019.16 2079.55C2024.06 2071.68 2026.54 2062.15 2026.59 2050.97V1821.86C2026.54 1810.68 2024.06 1801.15 2019.16 1793.27C2014.04 1785.1 2008.01 1781.21 2001.23 1781.21H1996.85V1774.68H2195.64V1835H2190.68L2188.28 1826.74C2186.36 1820.46 2182.8 1814.56 2177.62 1809.06C2172.75 1803.6 2166.72 1798.73 2160.19 1794.6C2153.33 1790.55 2146.31 1787.24 2138.38 1784.76C2130.39 1782.4 2122.57 1781.21 2114.92 1781.21H2052.7V1927.12H2097.48C2104.84 1927.12 2112.19 1926.54 2118.96 1925.22C2125.85 1923.84 2132.05 1921.94 2137.55 1919.52C2143.25 1917.04 2147.88 1914.31 2152.01 1911.34C2155.81 1908.03 2158.29 1905.06 2159.37 1901.76L2160.69 1897.13H2165.64V1967.19H2160.69L2159.37 1962.32C2158.54 1958.52 2155.81 1954.63 2152.01 1951.41C2147.94 1947.88 2143.2 1944.8 2137.8 1942.16C2132.07 1939.4 2125.79 1937.2 2118.96 1935.55C2112.19 1934.23 2104.84 1933.4 2097.48 1933.4H2052.7V2091.53H2118.96C2126.9 2091.53 2134.83 2090.46 2143.25 2088.06C2151.76 2085.59 2159.37 2082.28 2166.72 2077.9C2174.32 2073.61 2180.93 2068.9 2186.63 2063.44C2192.63 2058.05 2197.26 2052.23 2200.51 2046.01L2204.31 2037.83ZM2744.81 1774.68C2744.26 1774.74 2744.26 1775.73 2744.81 1777.66C2744.26 1780.08 2744.26 1781.27 2744.81 1781.21H2740.43C2733.94 1781.27 2727.3 1784.74 2720.52 1791.62C2713.47 1798.67 2708.21 1807.38 2704.74 1817.73L2621.54 2105.5H2614.69L2521.99 1815.33L2534.3 1769.81L2627 2062.37L2695.99 1818.89C2698.19 1808.48 2697 1799.55 2692.43 1792.12C2687.81 1784.79 2681.28 1781.16 2672.85 1781.21H2667.07V1774.68H2744.81Z" fill="white"/>
<path fill-rule="evenodd" clip-rule="evenodd" d="M2446.22 2064.85L2370.71 1818.31C2368.51 1808.01 2369.03 1799.2 2372.28 1791.87C2375.58 1784.76 2380.79 1781.21 2387.89 1781.21H2393.35V1774.69H2306.6V1781.21H2310.15C2315.27 1781.27 2321.08 1785.01 2327.58 1792.45C2334.19 1800.05 2339.29 1809.03 2342.87 1819.38L2435.07 2105.5H2441.84L2534.3 1769.81H2528.02L2446.22 2064.85ZM3049.68 2046.01C3046.43 2052.23 3041.81 2058.05 3035.8 2063.44C3030.02 2068.9 3023.49 2073.52 3016.14 2077.9C3008.54 2082.28 3000.85 2085.59 2992.43 2087.98C2983.92 2090.46 2976.07 2091.53 2968.14 2091.53H2901.88V1933.4H2946.57C2953.93 1933.4 2961.36 1934.23 2968.14 1935.55C2974.97 1937.2 2981.25 1939.38 2986.97 1942.07C2992.37 1944.77 2997.08 1947.89 3001.1 1951.41C3004.99 1954.63 3007.38 1958.52 3008.54 1962.32L3009.86 1967.19H3014.82V1897.13H3009.86L3008.54 1901.76C3007.38 1905.06 3004.99 1908.03 3001.1 1911.34C2997.05 1914.31 2992.43 1917.04 2986.64 1919.44C2981.19 1921.91 2975.02 1923.84 2968.14 1925.22C2961.36 1926.54 2953.93 1927.12 2946.57 1927.12H2901.88V1781.21H2964.09C2971.74 1781.16 2979.54 1782.34 2987.47 1784.77C2995.4 1787.24 3002.51 1790.47 3009.36 1794.6C3015.89 1798.65 3021.84 1803.6 3026.8 1809.06C3031.97 1814.56 3035.53 1820.46 3037.46 1826.74L3039.85 1834.92H3044.81V1774.69H2846.02V1781.21H2850.32C2857.18 1781.21 2863.13 1785.01 2868.33 1793.19C2873.23 1801.12 2875.68 1810.68 2875.68 1821.86V2050.88C2875.68 2062.07 2873.23 2071.62 2868.33 2079.55C2863.13 2087.73 2857.18 2091.53 2850.32 2091.53H2846.02V2098.06H3047.78C3047.73 2097.29 3047.81 2096.66 3048.03 2096.16C3048.03 2095.91 3048.28 2095.09 3048.28 2094.59C3049.68 2087.16 3051.58 2077.65 3053.24 2066.5C3055.14 2055.26 3056.79 2045.43 3058.44 2037.83H3053.48L3049.68 2046.01ZM3380.99 2031.8L3376.94 2040.81C3374.22 2047.66 3369.84 2053.94 3364.63 2059.89C3359.18 2066.17 3352.98 2071.37 3346.12 2076.25C3339.35 2080.93 3332.16 2084.68 3324.56 2087.49C3317.24 2090.19 3309.88 2091.53 3302.5 2091.53H3231.61V1821.86C3231.61 1810.63 3234.34 1801.12 3239.21 1793.19C3244.42 1785.01 3250.45 1781.21 3257.47 1781.21H3261.85V1774.69H3175.68V1781.21H3180.06C3187.16 1781.21 3192.86 1785.01 3198.07 1793.19C3203.19 1801.12 3205.73 1810.68 3205.67 1821.86V2050.88C3205.73 2062.07 3203.19 2071.62 3198.07 2079.55C3192.86 2087.73 3187.16 2091.53 3180.06 2091.53H3175.68V2098.06H3376.94C3376.94 2097.24 3377.19 2096.74 3377.19 2096.16C3377.52 2095.91 3377.52 2095.09 3377.52 2094.51C3379.17 2086.41 3380.99 2076.52 3382.97 2064.85C3384.87 2052.79 3386.77 2043.04 3388.43 2034.86C3387.05 2034.47 3385.4 2033.81 3383.47 2032.87C3382.64 2032.63 3381.82 2032.13 3380.99 2031.8ZM3770.38 2091.29C3768.23 2090.24 3765.51 2088.23 3762.2 2085.26C3759.01 2082.34 3754.85 2078.15 3749.72 2072.7C3744.77 2067.24 3738.3 2060.17 3730.31 2051.46L3637.36 1945.13C3649.86 1942.87 3661.4 1939.13 3671.98 1933.89C3682.66 1928.66 3691.84 1922.22 3699.49 1914.56C3707.48 1906.91 3713.68 1898.53 3718.08 1889.44C3722.76 1880.25 3725.13 1870.61 3725.19 1860.53C3725.13 1848.8 3722.49 1837.72 3717.26 1827.31C3712.05 1817.23 3704.7 1808.23 3695.69 1800.3C3687.02 1792.37 3676.36 1786.09 3664.63 1781.79C3652.89 1777.11 3640.34 1774.74 3626.95 1774.69H3501.29V1781.21H3505.66C3512.19 1781.21 3517.89 1785.01 3523.1 1793.19C3527.97 1801.12 3530.7 1810.63 3530.7 1821.86V2050.88C3530.7 2062.12 3527.97 2071.62 3523.1 2079.55C3517.89 2087.73 3512.19 2091.53 3505.66 2091.53H3501.29V2098.06H3586.88V2091.53H3582.5C3575.48 2091.53 3569.45 2087.73 3564.24 2079.55C3559.12 2071.62 3556.59 2062.07 3556.64 2050.88V1947.28H3605.72L3692.96 2046.01C3702.82 2057.19 3711.2 2066.2 3718.08 2073.03C3724.86 2079.8 3731.14 2085.26 3736.59 2088.81C3741.82 2092.61 3746.92 2095.06 3751.87 2096.16C3756.78 2097.48 3762.5 2098.12 3769.06 2098.06H3779.39V2092.61H3776.99C3774.79 2092.55 3772.58 2092.11 3770.38 2091.29ZM3556.64 1940.17V1781.79H3626.95C3636.29 1781.79 3645.54 1783.69 3653.97 1788.07C3662.4 1792.15 3669.86 1797.85 3676.36 1805.17C3682.64 1812.28 3687.76 1820.79 3691.64 1830.04C3695.22 1839.51 3697.04 1849.68 3697.1 1860.53C3697.1 1871.19 3694.87 1881.6 3690.24 1891.1C3685.67 1900.63 3679.58 1909.08 3671.98 1916.46C3664.63 1923.82 3655.62 1929.52 3645.54 1933.89C3635.46 1938.27 3624.56 1940.17 3613.07 1940.17H3556.64ZM3873.49 1781.21H3878.12C3884.4 1781.21 3890.43 1785.01 3895.3 1793.19C3900.48 1801.12 3903.04 1810.68 3902.99 1821.86V2050.88C3903.04 2062.07 3900.48 2071.62 3895.3 2079.55C3890.43 2087.73 3884.4 2091.53 3878.12 2091.53H3873.49V2098.06H3959.42V2091.53H3954.79C3947.93 2091.53 3941.98 2087.73 3937.03 2079.55C3931.85 2071.62 3929.12 2062.07 3928.85 2050.88V1821.86C3929.12 1810.68 3931.85 1801.12 3937.03 1793.19C3941.98 1785.01 3947.93 1781.21 3954.79 1781.21H3959.42V1774.69H3873.49V1781.21ZM4267.59 2046.01C4264.29 2052.23 4259.63 2058.05 4253.63 2063.44C4247.93 2068.9 4241.15 2073.52 4233.72 2077.9C4226.33 2082.2 4218.54 2085.56 4210.33 2087.98C4201.82 2090.46 4193.97 2091.53 4186.04 2091.53H4119.53V1933.4H4164.48C4171.83 1933.4 4179.19 1934.14 4186.04 1935.55C4192.87 1937.2 4199.15 1939.38 4204.88 1942.07C4210.28 1944.77 4214.99 1947.86 4219.01 1951.33C4222.81 1954.63 4225.29 1958.43 4226.36 1962.32L4227.77 1967.19H4232.64V1897.13H4227.77L4226.36 1901.76C4225.29 1904.98 4222.81 1908.03 4219.01 1911.26C4214.96 1914.31 4210.33 1917.04 4204.55 1919.44C4199.1 1921.91 4192.93 1923.84 4186.04 1925.22C4179.16 1926.49 4171.89 1927.12 4164.23 1927.12H4119.53V1781.21H4181.91C4189.62 1781.16 4197.44 1782.34 4205.38 1784.77C4213.09 1787.19 4220.36 1790.47 4227.19 1794.6C4233.72 1798.65 4239.75 1803.6 4244.62 1809.06C4249.85 1814.51 4253.41 1820.4 4255.28 1826.74L4257.76 1834.92H4262.63V1774.69H4063.85V1781.21H4068.23C4075.08 1781.21 4081.03 1785.01 4085.99 1793.19C4091.11 1801.12 4093.65 1810.68 4093.59 1821.86V2050.88C4093.65 2062.07 4091.11 2071.62 4085.99 2079.55C4081.03 2087.73 4075.08 2091.53 4068.23 2091.53H4063.85V2098.06H4265.69V2096.16C4265.94 2095.91 4265.94 2095.09 4265.94 2094.51C4267.59 2087.16 4269.49 2077.65 4271.14 2066.42C4273.04 2055.26 4274.7 2045.43 4276.26 2037.83H4271.39L4267.59 2046.01ZM4571.88 1963.89C4563.7 1955.71 4554.2 1948.11 4543.29 1941.5C4532.06 1934.72 4520.66 1929.52 4508.1 1925.96C4496.09 1922.49 4484.63 1917.78 4473.73 1911.84C4462.57 1906.05 4452.99 1899.52 4444.81 1892.75C4436.88 1885.86 4430.43 1878.87 4425.48 1871.76C4420.58 1864.6 4418.12 1857.86 4418.12 1851.52C4418.12 1841.77 4420.02 1832.41 4423.82 1823.43C4427.85 1814.51 4433.11 1806.8 4439.61 1800.3C4446.1 1793.8 4453.84 1788.51 4462.82 1784.43C4471.74 1780.63 4481.11 1778.73 4490.91 1778.73C4494.22 1778.79 4497.66 1778.98 4501.24 1779.31C4504.79 1779.81 4508.92 1780.39 4512.97 1781.21V1781.71C4518.48 1782.59 4524.13 1784.68 4529.91 1787.99C4535.64 1791.35 4541.09 1795.37 4546.27 1800.05C4551.45 1804.73 4556.07 1809.8 4560.15 1815.25C4564.22 1821.04 4567.34 1826.76 4569.48 1832.44C4570.23 1835.49 4571.63 1838.96 4572.95 1843.34C4574.36 1847.47 4576.01 1851.27 4577.09 1854H4581.96V1796.17C4576.29 1792.97 4569.48 1789.89 4561.55 1786.91C4553.62 1784.19 4545.69 1781.46 4537.51 1779.31C4529.33 1777.41 4521.15 1775.43 4513.3 1774.35C4505.37 1772.98 4498.27 1772.26 4491.99 1772.21C4479.48 1772.26 4467.67 1774.63 4456.54 1779.31C4445.06 1784.19 4435.31 1790.47 4427.13 1798.65C4418.7 1806.85 4412.07 1816.41 4407.22 1827.31C4402.26 1838.44 4399.81 1849.98 4399.86 1861.93C4399.86 1869.81 4402.21 1877.99 4406.89 1886.47C4411.73 1894.95 4418.1 1903.05 4425.97 1910.76C4434.12 1918.42 4443.49 1925.41 4454.06 1931.75C4464.72 1938.03 4475.88 1943.15 4487.61 1946.7C4500 1950.28 4511.82 1955.18 4523.05 1961.41C4534.29 1967.44 4544.04 1974.3 4552.79 1981.32C4561.22 1988.67 4567.83 1996.11 4572.71 2003.96C4577.61 2011.83 4580.06 2019.3 4580.06 2026.35C4580.06 2035.6 4578.16 2044.33 4574.36 2052.54C4570.23 2060.72 4565.11 2067.82 4558.25 2074.1C4551.64 2080.1 4543.82 2085.01 4534.78 2088.81C4525.86 2092.28 4516.5 2094.01 4506.69 2094.01C4503.72 2094.07 4500.74 2093.96 4497.77 2093.68C4494.47 2093.68 4491.19 2093.52 4487.94 2093.19V2092.61C4479.43 2091.53 4471 2089.3 4462.24 2085.5C4453.57 2081.7 4445.64 2077.08 4438.04 2071.38C4430.65 2065.59 4424.1 2059.12 4418.37 2051.96C4412.53 2044.91 4408.35 2037.56 4405.81 2029.9C4405.04 2027.64 4404.13 2025 4403.09 2021.97C4402.01 2019.24 4400.94 2016.76 4400.36 2014.61H4394.91V2071.62C4400.11 2075.42 4407.22 2079.22 4415.89 2082.53C4424.4 2086.08 4433.9 2089.06 4443.98 2091.78C4454.12 2094.54 4464.67 2096.71 4475.63 2098.31C4486.53 2099.74 4496.89 2100.48 4506.69 2100.54C4519 2100.54 4530.98 2098.06 4542.14 2093.43C4553.37 2089.06 4563.21 2082.78 4571.88 2075.18C4580.31 2067.52 4586.94 2058.51 4591.79 2048.16C4596.69 2038.02 4599.15 2027.2 4599.15 2015.69C4599.15 2007.26 4596.69 1998.53 4591.79 1989.5C4586.94 1980.58 4580.31 1972.04 4571.88 1963.89ZM1441.64 1197.91C1426.94 1169.49 1419.58 1135.75 1419.58 1096.7V161.109C1419.58 122.168 1426.94 88.5411 1441.64 60.2298C1456.46 31.8635 1475.63 14.6786 1499.15 8.6748H1242.28C1265.96 14.6786 1285.16 31.8635 1299.87 60.2298C1314.79 88.5411 1322.23 122.168 1322.17 161.109V1096.7C1322.23 1135.75 1314.79 1169.49 1299.87 1197.91C1285.16 1226.06 1265.96 1243.13 1242.28 1249.14H1499.15C1475.68 1243.19 1456.35 1226 1441.64 1197.91Z" fill="white"/>
<path fill-rule="evenodd" clip-rule="evenodd" d="M2106.98 1135.78C2003.05 972.442 1660.83 502.828 1660.83 502.828L1487.41 676V614.365L1942.24 161.192C1949.34 154.087 1954.55 148.304 1958.1 143.429C1991.4 109.059 2014.53 79.6461 2028.17 54.7773C2041.88 30.0463 2037.42 14.679 2014.78 8.67529H2209.76C2189.66 14.679 2163.66 25.0616 2131.77 39.8231C2099.88 54.5295 2063.88 79.6184 2023.79 115.09L1706.69 430.535L2190.43 1116.37C2224.53 1161.15 2256.42 1192.98 2286.11 1211.88C2315.6 1230.96 2341.46 1243.19 2363.85 1249.22H2106.98C2144.91 1239.64 2147.96 1200.14 2106.98 1135.78ZM3583.91 878.916C3553.92 955.505 3511.37 1021.52 3456.51 1076.3C3401.48 1131.4 3335.71 1173.95 3258.88 1203.94C3181.96 1234.18 3097.69 1249.22 3005.48 1249.22C2911.96 1249.22 2827.43 1234.18 2751.09 1203.94C2675 1173.95 2609.32 1131.4 2554.46 1076.3C2499.65 1021.55 2457.1 956.028 2426.81 879.742C2396.82 803.648 2381.61 718.797 2381.61 625.519C2381.61 531.993 2396.82 446.976 2426.81 370.305C2457.13 293.385 2499.68 227.702 2554.46 172.594C2609.32 117.817 2675 75.2673 2751.09 45.2761C2827.43 14.9544 2911.96 0 3005.48 0C3097.69 0 3181.96 15.2849 3258.88 46.1023C3335.71 76.9197 3401.48 119.386 3456.51 174.494C3511.37 229.354 3553.92 295.285 3583.91 371.957C3614.15 448.849 3629.24 533.37 3629.18 625.519C3629.18 717.723 3614.15 801.996 3583.91 878.916ZM3541.36 669.721C3540.75 594.206 3526.93 519.214 3499.88 444.746C3478.62 384.543 3450.25 329.655 3414.78 280.083C3379.34 230.428 3338.77 187.631 3293.5 152.435C3247.94 116.963 3198.32 89.1474 3144.61 68.9881C3090.8 49.049 3034.98 39.0519 2977.14 38.9968C2920.47 38.9968 2862.58 49.6274 2803.47 70.8884C2728.95 98.1531 2666.57 137.398 2616.34 189.531C2566.19 241.582 2528.84 300.49 2504.06 366.752C2479.19 433.013 2467.21 503.654 2468.53 579.499C2469.63 655.014 2483.82 730.529 2511.08 806.044C2532.4 866.357 2560.76 921.355 2596.18 971.037C2631.65 1020.72 2671.75 1063.19 2716.48 1098.44C2761.42 1134.13 2810.5 1161.39 2863.7 1181.06C2916.91 1200.39 2972.27 1210.22 3030.35 1210.22C3088.18 1210.22 3147.26 1199.59 3207.57 1178.33C3281.76 1151.07 3343.89 1111.74 3393.55 1060.52C3443.12 1009.18 3480.3 950.079 3505.09 883.212C3529.87 816.454 3542.18 745.236 3541.36 669.721ZM5017.45 371.957C5047.69 448.849 5062.78 533.37 5062.73 625.519C5062.73 717.723 5047.69 801.996 5017.45 878.916C4987.46 955.505 4944.91 1021.52 4890.13 1076.3C4835 1131.38 4769.1 1173.93 4692.42 1203.94C4615.5 1234.18 4531.23 1249.22 4439.11 1249.22C4345.5 1249.22 4260.98 1234.18 4184.64 1203.94C4108.55 1173.95 4042.86 1131.4 3988 1076.3C3932.92 1021.55 3890.4 956.028 3860.44 879.742C3830.45 803.648 3815.16 718.797 3815.16 625.519C3815.16 531.993 3830.45 446.976 3860.44 370.305C3890.43 293.385 3932.98 227.702 3988 172.594C4042.86 117.817 4108.55 75.2673 4184.64 45.2761C4260.98 14.9544 4345.5 0 4439.11 0C4531.23 0 4615.5 15.2849 4692.42 46.1023C4769.01 76.9197 4835.03 119.386 4890.13 174.494C4944.91 229.354 4987.46 295.285 5017.45 371.957ZM4974.9 669.721C4974.3 594.206 4960.47 519.214 4933.43 444.746C4912.17 384.543 4883.83 329.655 4848.41 280.083C4812.97 230.428 4772.32 187.631 4727.04 152.435C4681.49 116.963 4631.86 89.1474 4578.16 68.9881C4524.4 49.049 4468.58 39.0519 4410.69 38.9968C4353.9 38.9968 4296.01 49.6274 4237.02 70.8884C4162.58 98.1531 4100.12 137.398 4049.97 189.531C3999.73 241.582 3962.39 300.49 3937.6 366.752C3912.74 433.013 3900.76 503.654 3902.16 579.499C3903.21 655.014 3917.39 730.529 3944.71 806.044C3965.97 866.357 3994.31 921.355 4029.73 971.037C4065.2 1020.72 4105.3 1063.19 4150.02 1098.44C4194.97 1134.13 4244.13 1161.39 4297.25 1181.06C4350.46 1200.39 4405.81 1210.22 4463.9 1210.22C4521.73 1210.22 4580.56 1199.57 4641.12 1178.33C4715.31 1151.07 4777.44 1111.74 4827.1 1060.52C4876.67 1009.18 4913.85 950.079 4938.63 883.212C4963.42 816.399 4975.51 745.236 4974.9 669.721ZM914.112 161.192V1096.79C914.112 1135.78 921.493 1169.46 936.254 1197.83C951.071 1226.14 970.266 1243.27 993.841 1249.22H736.891C760.521 1243.27 779.716 1226.14 794.478 1197.83C809.239 1169.46 816.62 1135.78 816.62 1096.79V361.464L556.2 712.27H721.358V752.589H526.292L211.012 1174.78C208.286 1179.49 205.064 1184.53 202.668 1188.99C189.035 1213.78 204.155 1243.19 226.628 1249.22H0C20.1043 1243.27 46.1022 1232.94 77.9937 1218.24C107.076 1204.77 134.836 1188.49 159.457 1167.92C186.144 1145.61 204.403 1118.27 224.893 1090.67C275.016 1023.2 325.139 955.697 375.262 888.169C440.862 799.765 686.41 469.201 743.501 392.364C767.846 359.536 792.219 326.681 816.62 293.798V161.192C816.62 122.251 809.239 88.569 794.478 60.1476C779.716 31.8364 760.521 14.7064 736.891 8.75774H993.841C970.266 14.7064 951.071 31.8364 936.254 60.1476C921.493 88.569 914.112 122.251 914.112 161.192ZM5479.05 1249.22H5222.27C5245.9 1243.16 5265.07 1226.06 5279.77 1197.91C5294.7 1169.55 5302.13 1135.84 5302.08 1096.79V161.11C5302.13 122.168 5294.7 88.5416 5279.77 60.2303C5265.07 31.864 5245.9 14.679 5222.27 8.67529H5479.05C5455.67 14.7066 5436.26 31.8915 5421.55 60.2303C5406.84 88.5416 5399.49 122.168 5399.49 161.11V1096.79C5399.49 1135.84 5406.84 1169.55 5421.55 1197.91C5436.26 1226 5455.67 1243.19 5479.05 1249.22Z" fill="white"/>
<path fill-rule="evenodd" clip-rule="evenodd" d="M6086.97 1135.78C5983.04 972.441 5640.82 502.827 5640.82 502.827L5467.4 675.999V614.365L5922.23 161.192C5929.33 154.087 5934.54 148.303 5938.01 143.429C5971.3 109.059 5994.52 79.6456 6008.15 54.7769C6021.81 30.0458 6017.35 14.6786 5994.77 8.6748H6189.75C6169.59 14.6786 6143.59 25.0611 6111.76 39.8226C6079.87 54.5291 6043.87 79.618 6003.77 115.09L5686.59 430.535L6170.42 1116.37C6204.51 1161.15 6236.41 1192.98 6266.09 1211.87C6295.59 1230.96 6321.45 1243.19 6343.84 1249.22H6086.97C6124.81 1239.64 6127.95 1200.14 6086.97 1135.78Z" fill="white"/>
</svg>
